<svg width="17" height="18" viewBox="0 0 17 18" fill="none" xmlns="http://www.w3.org/2000/svg">
<path d="M9.25239 0.311566C9.05283 0.11207 8.78221 0 8.50004 0C8.21787 0 7.94725 0.11207 7.74769 0.311566L0.298717 7.76054C0.104875 7.96124 -0.00238433 8.23005 4.02273e-05 8.50906C0.00246478 8.78807 0.114379 9.05497 0.311679 9.25227C0.50898 9.44957 0.775879 9.56149 1.05489 9.56391C1.33391 9.56634 1.60271 9.45908 1.80341 9.26524L2.1152 8.95344V15.9619C2.1152 16.2441 2.22732 16.5148 2.42688 16.7143C2.62645 16.9139 2.89712 17.026 3.17934 17.026H5.30762C5.58985 17.026 5.86052 16.9139 6.06008 16.7143C6.25965 16.5148 6.37176 16.2441 6.37176 15.9619V13.8336C6.37176 13.5514 6.48388 13.2807 6.68344 13.0811C6.88301 12.8816 7.15367 12.7694 7.4359 12.7694H9.56418C9.84641 12.7694 10.1171 12.8816 10.3166 13.0811C10.5162 13.2807 10.6283 13.5514 10.6283 13.8336V15.9619C10.6283 16.2441 10.7404 16.5148 10.94 16.7143C11.1396 16.9139 11.4102 17.026 11.6925 17.026H13.8207C14.103 17.026 14.3736 16.9139 14.5732 16.7143C14.7728 16.5148 14.8849 16.2441 14.8849 15.9619V8.95344L15.1967 9.26524C15.3974 9.45908 15.6662 9.56634 15.9452 9.56391C16.2242 9.56149 16.4911 9.44957 16.6884 9.25227C16.8857 9.05497 16.9976 8.78807 17 8.50906C17.0025 8.23005 16.8952 7.96124 16.7014 7.76054L9.25239 0.311566Z" fill="#484848" fill-opacity="0.9"/>
</svg>
