<svg width="19" height="18" viewBox="0 0 19 18" fill="none" xmlns="http://www.w3.org/2000/svg">
<mask id="path-1-inside-1_51_27" fill="white">
<path d="M17.0098 4.39534H15.4884C15.3846 4.39534 15.2872 4.35139 15.2223 4.27395C15.0708 4.09604 14.9085 3.92441 14.7375 3.76116C14.0383 3.08421 13.2101 2.54473 12.2987 2.17255C11.3544 1.78681 10.3395 1.58893 9.31446 1.59069C8.27789 1.59069 7.27378 1.78744 6.33027 2.17255C5.41884 2.54473 4.59062 3.08421 3.89141 3.76116C3.19094 4.43581 2.63241 5.23546 2.24674 6.1158C1.8464 7.02836 1.64514 7.99743 1.64514 8.99998C1.64514 10.0025 1.84856 10.9716 2.24674 11.8842C2.63194 12.7653 3.18593 13.5586 3.89141 14.2388C4.59688 14.919 5.41705 15.4549 6.33027 15.8274C7.27378 16.2125 8.27789 16.4093 9.31446 16.4093C10.351 16.4093 11.3551 16.2146 12.2987 15.8274C13.2119 15.4549 14.032 14.919 14.7375 14.2388C14.9085 14.0735 15.0686 13.9018 15.2223 13.726C15.2872 13.6486 15.3867 13.6046 15.4884 13.6046H17.0098C17.1461 13.6046 17.2305 13.7511 17.1547 13.8621C15.4949 16.3569 12.5908 18.0083 9.29066 18C4.10565 17.9874 -0.0514553 13.9165 0.000481398 8.90789C0.0524181 3.97883 4.20303 0 9.31446 0C12.606 0 15.4971 1.6493 17.1547 4.1379C17.2283 4.24883 17.1461 4.39534 17.0098 4.39534ZM18.9336 9.13184L15.8628 11.476C15.7481 11.5639 15.5815 11.4844 15.5815 11.3442V9.75347H8.78644C8.69122 9.75347 8.61332 9.67812 8.61332 9.58603V8.41394C8.61332 8.32185 8.69122 8.2465 8.78644 8.2465H15.5815V6.6558C15.5815 6.51557 15.7503 6.43604 15.8628 6.52394L18.9336 8.86812C18.9543 8.88379 18.971 8.9038 18.9825 8.92665C18.994 8.94949 19 8.97457 19 8.99998C19 9.0254 18.994 9.05048 18.9825 9.07332C18.971 9.09617 18.9543 9.11618 18.9336 9.13184Z"/>
</mask>
<path d="M15.2223 4.27395L22.8361 -2.20903L22.861 -2.17982L22.8857 -2.15042L15.2223 4.27395ZM14.7375 3.76116L7.83126 10.9933L7.80644 10.9696L7.78178 10.9457L14.7375 3.76116ZM12.2987 2.17255L8.51824 11.4304L8.51692 11.4299L12.2987 2.17255ZM9.31446 1.59069L9.33172 11.5907L9.32309 11.5907H9.31446V1.59069ZM6.33027 2.17255L2.54985 -7.08533L2.55124 -7.0859L6.33027 2.17255ZM3.89141 3.76116L10.8471 10.9457L10.8379 10.9547L10.8286 10.9636L3.89141 3.76116ZM2.24674 6.1158L11.4063 10.1285L11.4043 10.1333L2.24674 6.1158ZM2.24674 11.8842L-6.91602 15.8896L-6.91874 15.8834L2.24674 11.8842ZM6.33027 15.8274L10.1076 6.56828L10.1093 6.56896L6.33027 15.8274ZM12.2987 15.8274L8.50205 6.57616L8.51167 6.57221L8.5213 6.56828L12.2987 15.8274ZM14.7375 14.2388L21.6897 21.4268L21.6842 21.4322L21.6786 21.4375L14.7375 14.2388ZM15.2223 13.726L22.8857 20.1504L22.8197 20.2291L22.7521 20.3064L15.2223 13.726ZM17.1547 13.8621L8.82894 8.32302L8.86226 8.27294L8.89618 8.22327L17.1547 13.8621ZM9.29066 18L9.31488 8L9.31603 8L9.29066 18ZM0.000481398 8.90789L-9.99898 8.8042L-9.99896 8.80253L0.000481398 8.90789ZM17.1547 4.1379L25.4774 -1.40581L25.4829 -1.39767L25.4883 -1.38951L17.1547 4.1379ZM15.8628 11.476L9.77959 3.53913L9.78725 3.53326L9.79493 3.5274L15.8628 11.476ZM15.5815 9.75347V-0.246529H25.5815V9.75347H15.5815ZM15.5815 8.2465H25.5815V18.2465H15.5815V8.2465ZM15.8628 6.52394L9.79493 14.4726L9.75061 14.4387L9.70668 14.4044L15.8628 6.52394ZM18.9336 8.86812L12.8982 16.8415L12.8819 16.8291L12.8657 16.8168L18.9336 8.86812ZM17.0098 14.3953H15.4884V-5.60466H17.0098V14.3953ZM15.4884 14.3953C12.5715 14.3953 9.61471 13.1506 7.55888 10.6983L22.8857 -2.15042C20.9597 -4.44787 18.1976 -5.60466 15.4884 -5.60466V14.3953ZM7.6084 10.7569C7.68357 10.8452 7.75793 10.9233 7.83126 10.9933L21.6438 -3.47096C22.059 -3.07443 22.458 -2.65314 22.8361 -2.20903L7.6084 10.7569ZM7.78178 10.9457C8.00989 11.1665 8.26269 11.3261 8.51824 11.4304L16.0791 -7.08533C18.1575 -6.23662 20.0667 -4.99812 21.6933 -3.42339L7.78178 10.9457ZM8.51692 11.4299C8.78462 11.5393 9.06073 11.5911 9.33172 11.5907L9.29721 -8.40929C11.6183 -8.4133 13.9242 -7.96564 16.0804 -7.08479L8.51692 11.4299ZM9.31446 11.5907C9.56053 11.5907 9.84093 11.5405 10.1093 11.431L2.55124 -7.0859C4.70664 -7.96567 6.99526 -8.40931 9.31446 -8.40931V11.5907ZM10.1107 11.4304C10.3662 11.3261 10.619 11.1665 10.8471 10.9457L-3.06434 -3.42339C-1.4378 -4.99812 0.471438 -6.23662 2.54985 -7.08533L10.1107 11.4304ZM10.8286 10.9636C11.059 10.7417 11.2606 10.4611 11.4063 10.1285L-6.91285 2.1031C-5.99582 0.00982857 -4.67708 -1.8701 -3.04575 -3.44133L10.8286 10.9636ZM11.4043 10.1333C11.5666 9.76326 11.6451 9.36277 11.6451 8.99998H-8.35486C-8.35486 6.63209 -7.87378 4.29346 -6.91076 2.09834L11.4043 10.1333ZM11.6451 8.99998C11.6451 8.62296 11.5632 8.23082 11.4122 7.88493L-6.91874 15.8834C-7.86603 13.7124 -8.35486 11.3821 -8.35486 8.99998H11.6451ZM11.4095 7.87869C11.2604 7.5377 11.0516 7.25134 10.8325 7.04013L-3.0497 21.4375C-4.6797 19.8658 -5.99656 17.993 -6.91602 15.8896L11.4095 7.87869ZM10.8325 7.04013C10.6278 6.84277 10.3754 6.67753 10.1076 6.56828L2.55291 25.0865C0.458673 24.2322 -1.43407 22.9953 -3.0497 21.4375L10.8325 7.04013ZM10.1093 6.56896C9.84093 6.45942 9.56053 6.40927 9.31446 6.40927V26.4093C6.99526 26.4093 4.70664 25.9656 2.55124 25.0859L10.1093 6.56896ZM9.31446 6.40927C9.08196 6.40927 8.79353 6.45654 8.50205 6.57616L16.0953 25.0787C13.9168 25.9727 11.6201 26.4093 9.31446 26.4093V6.40927ZM8.5213 6.56828C8.25351 6.67753 8.0011 6.84277 7.79641 7.04013L21.6786 21.4375C20.063 22.9953 18.1703 24.2322 16.076 25.0865L8.5213 6.56828ZM7.78537 7.05079C7.71468 7.11917 7.68133 7.15833 7.69245 7.14561L22.7521 20.3064C22.4559 20.6453 22.1023 21.0278 21.6897 21.4268L7.78537 7.05079ZM7.55888 7.30166C9.63532 4.82474 12.6073 3.60463 15.4884 3.60463V23.6046C18.1662 23.6046 20.939 22.4724 22.8857 20.1504L7.55888 7.30166ZM15.4884 3.60463H17.0098V23.6046H15.4884V3.60463ZM17.0098 3.60463C24.3029 3.60463 30.5095 12.037 25.4133 19.5009L8.89618 8.22327C3.95143 15.4653 9.98926 23.6046 17.0098 23.6046V3.60463ZM25.4805 19.4011C21.9845 24.6561 15.9619 28.0169 9.26529 27.9999L9.31603 8C9.21968 7.99976 9.00539 8.05781 8.82894 8.32302L25.4805 19.4011ZM9.26644 27.9999C-1.14643 27.9747 -10.1118 19.687 -9.99898 8.8042L9.99994 9.01158C10.0038 8.64152 9.83406 8.33514 9.67684 8.18124C9.52617 8.03376 9.37259 8.00014 9.31488 8L9.26644 27.9999ZM-9.99896 8.80253C-9.88601 -1.91777 -0.963641 -10 9.31446 -10V10C9.39 10 9.53649 9.96204 9.6745 9.82994C9.81735 9.69322 9.99585 9.40012 9.99993 9.01325L-9.99896 8.80253ZM9.31446 -10C15.9958 -10 21.9905 -6.64071 25.4774 -1.40581L8.83205 9.68161C9.0037 9.93931 9.2161 10 9.31446 10V-10ZM25.4883 -1.38951C30.2779 5.83162 24.5607 14.3953 17.0098 14.3953V-5.60466C9.73147 -5.60466 4.17878 2.66604 8.82121 9.66531L25.4883 -1.38951ZM25.0015 17.0805L21.9307 19.4247L9.79493 3.5274L12.8657 1.18322L25.0015 17.0805ZM21.946 19.4129C15.673 24.2209 5.58149 20.298 5.58149 11.3442H25.5815C25.5815 2.67078 15.8232 -1.09302 9.77959 3.53913L21.946 19.4129ZM5.58149 11.3442V9.75347H25.5815V11.3442H5.58149ZM15.5815 19.7535H8.78644V-0.246529H15.5815V19.7535ZM8.78644 19.7535C3.48549 19.7535 -1.38668 15.5128 -1.38668 9.58603H18.6133C18.6133 3.84341 13.897 -0.246529 8.78644 -0.246529V19.7535ZM-1.38668 9.58603V8.41394H18.6133V9.58603H-1.38668ZM-1.38668 8.41394C-1.38668 2.48713 3.48549 -1.7535 8.78644 -1.7535V18.2465C13.897 18.2465 18.6133 14.1566 18.6133 8.41394H-1.38668ZM8.78644 -1.7535H15.5815V18.2465H8.78644V-1.7535ZM5.58149 8.2465V6.6558H25.5815V8.2465H5.58149ZM5.58149 6.6558C5.58149 -2.26265 15.6957 -6.29621 22.019 -1.35653L9.70668 14.4044C15.8049 19.1683 25.5815 15.2938 25.5815 6.6558H5.58149ZM21.9307 -1.42469L25.0015 0.919497L12.8657 16.8168L9.79493 14.4726L21.9307 -1.42469ZM24.9689 0.894768C26.1892 1.81843 27.2045 3.02051 27.9133 4.42774L10.0517 13.4255C10.7375 14.7871 11.7193 15.9491 12.8982 16.8415L24.9689 0.894768ZM27.9133 4.42774C28.6231 5.83663 29 7.40144 29 8.99998H9C9 10.5477 9.36496 12.0624 10.0517 13.4255L27.9133 4.42774ZM29 8.99998C29 10.5985 28.6231 12.1633 27.9133 13.5722L10.0517 4.57442C9.36494 5.93765 9 7.45231 9 8.99998H29ZM27.9133 13.5722C27.2044 14.9796 26.1891 16.1816 24.9689 17.1052L12.8982 1.15849C11.7194 2.05076 10.7376 3.21278 10.0517 4.57442L27.9133 13.5722Z" fill="#F2F2F2" mask="url(#path-1-inside-1_51_27)"/>
</svg>
