<svg width="15" height="14" viewBox="0 0 15 14" fill="none" xmlns="http://www.w3.org/2000/svg">
<path d="M9.37785 2.70805V0.578081C9.37785 0.0980893 9.90784 -0.159907 10.2678 0.108089L10.3298 0.162088L14.8268 4.58202C15.0368 4.78901 15.0558 5.12101 14.8838 5.35L14.8268 5.415L10.3298 9.83793C9.99184 10.1699 9.44285 9.95693 9.38285 9.50394L9.37785 9.42194V7.32597L9.11985 7.34897C7.31988 7.54197 5.59391 8.37295 3.93294 9.85593C3.54294 10.2039 2.94095 9.87593 3.00495 9.34994C3.50294 5.26001 5.58991 3.00504 9.15285 2.72305L9.37785 2.70805ZM2.49996 1.00007C1.83693 1.00007 1.20105 1.26346 0.732221 1.7323C0.263388 2.20113 0 2.837 0 3.50003V11.4999C0 12.1629 0.263388 12.7988 0.732221 13.2676C1.20105 13.7365 1.83693 13.9999 2.49996 13.9999H10.4998C11.1629 13.9999 11.7987 13.7365 12.2676 13.2676C12.7364 12.7988 12.9998 12.1629 12.9998 11.4999V10.4999C12.9998 10.3673 12.9471 10.2401 12.8533 10.1464C12.7596 10.0526 12.6324 9.99993 12.4998 9.99993C12.3672 9.99993 12.24 10.0526 12.1462 10.1464C12.0525 10.2401 11.9998 10.3673 11.9998 10.4999V11.4999C11.9998 11.8977 11.8418 12.2792 11.5605 12.5605C11.2792 12.8418 10.8976 12.9999 10.4998 12.9999H2.49996C2.10214 12.9999 1.72062 12.8418 1.43932 12.5605C1.15802 12.2792 0.999984 11.8977 0.999984 11.4999V3.50003C0.999984 3.10222 1.15802 2.72069 1.43932 2.43939C1.72062 2.15809 2.10214 2.00006 2.49996 2.00006H5.49991C5.63252 2.00006 5.75969 1.94738 5.85346 1.85361C5.94723 1.75985 5.9999 1.63267 5.9999 1.50007C5.9999 1.36746 5.94723 1.24029 5.85346 1.14652C5.75969 1.05275 5.63252 1.00007 5.49991 1.00007H2.49996Z" fill="white"/>
</svg>
