<svg width="19" height="19" viewBox="0 0 19 19" fill="none" xmlns="http://www.w3.org/2000/svg">
<path d="M10.2077 7.37655C12.032 7.37655 13.5109 5.89769 13.5109 4.07341C13.5109 2.24914 12.032 0.77027 10.2077 0.77027C8.38347 0.77027 6.9046 2.24914 6.9046 4.07341C6.9046 5.89769 8.38347 7.37655 10.2077 7.37655Z" stroke="white" stroke-width="1.5" stroke-linecap="round" stroke-linejoin="round"/>
<path d="M0.77027 18.2297C0.77027 14.0597 4.57313 10.6797 9.26406 10.6797" stroke="white" stroke-width="1.5" stroke-linecap="round" stroke-linejoin="round"/>
<path d="M11.6233 13.511H18.2295V18.2297H11.6233V13.511Z" stroke="white" stroke-width="1.5" stroke-linecap="round" stroke-linejoin="round"/>
<path d="M16.3421 13.511V12.0953C16.3421 11.7199 16.1929 11.3598 15.9275 11.0943C15.662 10.8288 15.3019 10.6797 14.9265 10.6797C14.551 10.6797 14.1909 10.8288 13.9255 11.0943C13.66 11.3598 13.5108 11.7199 13.5108 12.0953V13.511" stroke="white" stroke-width="1.5" stroke-linecap="round" stroke-linejoin="round"/>
</svg>
