<svg width="21" height="22" viewBox="0 0 21 22" fill="none" xmlns="http://www.w3.org/2000/svg">
<path d="M16.134 9.99994C16.715 15.3749 19 16.9999 19 16.9999H1.00012C1.00012 16.9999 4.0001 14.8669 4.0001 7.39996C4.0001 5.70297 4.6321 4.07498 5.75709 2.87498C6.88308 1.67499 8.41007 0.999994 10.0001 0.999994C10.3371 0.999994 10.6721 1.02999 11.0001 1.08999" stroke="white" stroke-width="2" stroke-linecap="round" stroke-linejoin="round"/>
<path d="M17 6.99996C17.7957 6.99996 18.5587 6.68389 19.1213 6.12128C19.6839 5.55868 20 4.79562 20 3.99998C20 3.20433 19.6839 2.44127 19.1213 1.87867C18.5587 1.31606 17.7957 0.999994 17 0.999994C16.2044 0.999994 15.4413 1.31606 14.8787 1.87867C14.3161 2.44127 14 3.20433 14 3.99998C14 4.79562 14.3161 5.55868 14.8787 6.12128C15.4413 6.68389 16.2044 6.99996 17 6.99996Z" stroke="white" stroke-width="2" stroke-linecap="round" stroke-linejoin="round"/>
<path d="M11.7301 19.9999C11.5545 20.3032 11.3022 20.555 10.9986 20.7301C10.6949 20.9052 10.3506 20.9973 10.0001 20.9973C9.64959 20.9973 9.30525 20.9052 9.00161 20.7301C8.69797 20.555 8.4457 20.3032 8.27009 19.9999" stroke="white" stroke-width="2" stroke-linecap="round" stroke-linejoin="round"/>
</svg>
