<svg width="17" height="18" viewBox="0 0 17 18" fill="none" xmlns="http://www.w3.org/2000/svg">
<path d="M9.25232 0.311563C9.05277 0.112069 8.78215 0 8.49998 0C8.21781 0 7.94719 0.112069 7.74764 0.311563L0.298714 7.76049C0.104874 7.96119 -0.00238431 8.22999 4.0227e-05 8.509C0.00246477 8.78801 0.114378 9.05491 0.311677 9.25221C0.508976 9.44951 0.775873 9.56142 1.05489 9.56384C1.3339 9.56627 1.6027 9.45901 1.8034 9.26517L2.11519 8.95338V15.9618C2.11519 16.244 2.2273 16.5146 2.42687 16.7142C2.62643 16.9138 2.89709 17.0259 3.17932 17.0259H5.30758C5.58981 17.0259 5.86048 16.9138 6.06004 16.7142C6.2596 16.5146 6.37172 16.244 6.37172 15.9618V13.8335C6.37172 13.5513 6.48383 13.2806 6.68339 13.081C6.88296 12.8815 7.15362 12.7694 7.43585 12.7694H9.56411C9.84634 12.7694 10.117 12.8815 10.3166 13.081C10.5161 13.2806 10.6282 13.5513 10.6282 13.8335V15.9618C10.6282 16.244 10.7404 16.5146 10.9399 16.7142C11.1395 16.9138 11.4102 17.0259 11.6924 17.0259H13.8206C14.1029 17.0259 14.3735 16.9138 14.5731 16.7142C14.7727 16.5146 14.8848 16.244 14.8848 15.9618V8.95338L15.1966 9.26517C15.3973 9.45901 15.6661 9.56627 15.9451 9.56384C16.2241 9.56142 16.491 9.44951 16.6883 9.25221C16.8856 9.05491 16.9975 8.78801 16.9999 8.509C17.0023 8.22999 16.8951 7.96119 16.7012 7.76049L9.25232 0.311563Z" fill="#232426"/>
</svg>
