<svg width="21" height="19" viewBox="0 0 21 19" fill="none" xmlns="http://www.w3.org/2000/svg">
<path d="M19.0909 7.77637V16.45L14.4073 11.7664L13.51 12.6636L18.1109 17.2709H2.32909L6.78364 12.6636L5.86727 11.7791L1.27273 16.5327V5.51091L9.18273 13.3827C9.42119 13.6198 9.74376 13.7528 10.08 13.7528C10.4162 13.7528 10.7388 13.6198 10.9773 13.3827L16.5964 7.79546C16.1479 7.67842 15.7191 7.49617 15.3236 7.25455L10.0673 12.4791L2.10636 4.54364H13.2427C13.1197 4.13028 13.0533 3.70213 13.0455 3.27091H1.27273C0.935179 3.27091 0.611456 3.405 0.372773 3.64369C0.13409 3.88237 0 4.20609 0 4.54364V17.2709C0 17.6085 0.13409 17.9322 0.372773 18.1709C0.611456 18.4095 0.935179 18.5436 1.27273 18.5436H19.0909C19.4285 18.5436 19.7522 18.4095 19.9909 18.1709C20.2295 17.9322 20.3636 17.6085 20.3636 17.2709V7.21637C19.9692 7.46457 19.5404 7.65327 19.0909 7.77637Z" fill="#F2F2F2"/>
<path d="M17.8182 6.36364C19.5754 6.36364 21 4.93909 21 3.18182C21 1.42455 19.5754 0 17.8182 0C16.0609 0 14.6364 1.42455 14.6364 3.18182C14.6364 4.93909 16.0609 6.36364 17.8182 6.36364Z" fill="#F2F2F2"/>
</svg>
