<svg width="19" height="17" viewBox="0 0 19 17" fill="none" xmlns="http://www.w3.org/2000/svg">
<path d="M10.0938 15H1.1875C0.872555 15 0.57051 14.8683 0.347811 14.6339C0.125111 14.3995 0 14.0815 0 13.75V1.25C0 0.918479 0.125111 0.600537 0.347811 0.366116C0.57051 0.131696 0.872555 0 1.1875 0H17.8125C18.1274 0 18.4295 0.131696 18.6522 0.366116C18.8749 0.600537 19 0.918479 19 1.25V7.73125C18.209 6.67077 17.0584 5.97418 15.7898 5.78778C14.5212 5.60137 13.2334 5.93965 12.1967 6.73158C11.16 7.5235 10.4552 8.70745 10.2303 10.0348C10.0053 11.3621 10.2777 12.7296 10.9903 13.85L10.4381 14.5625L10.0938 15ZM2.96875 3.75V4.75H13.0625V3.75H2.96875ZM2.96875 7.25H9.5V6.25H2.96875V7.25ZM2.96875 11.625H8.90625V10.625H2.96875V11.625Z" fill="#484848" fill-opacity="0.9"/>
<path d="M19 10.7663C19.0017 10.1444 18.839 9.53193 18.5265 8.98371C18.214 8.43548 17.7615 7.96868 17.2096 7.62518C16.6576 7.28168 16.0236 7.07223 15.3642 7.01561C14.7049 6.95899 14.0408 7.05697 13.4317 7.30077C12.8227 7.54457 12.2875 7.92656 11.8744 8.41248C11.4612 8.89839 11.1829 9.47303 11.0645 10.0848C10.9461 10.6967 10.9912 11.3265 11.1959 11.9179C11.4005 12.5093 11.7583 13.0437 12.237 13.4733L11.0188 14.871L11.584 17L13.8822 14.3697C14.6097 14.5717 15.3839 14.5717 16.1114 14.3697L18.4097 17L18.9749 14.871L17.7567 13.4733C18.1484 13.1247 18.4606 12.7051 18.6744 12.2397C18.8881 11.7744 18.9989 11.2731 19 10.7663ZM12.2559 10.7663C12.2484 10.2551 12.403 9.75338 12.6999 9.32493C12.9969 8.89648 13.4228 8.56065 13.9235 8.36015C14.4242 8.15964 14.9771 8.10353 15.5119 8.19894C16.0466 8.29435 16.5391 8.53698 16.9266 8.89596C17.3142 9.25494 17.5793 9.71407 17.6883 10.2149C17.7973 10.7158 17.7452 11.2358 17.5386 11.7088C17.3321 12.1818 16.9804 12.5864 16.5284 12.8712C16.0763 13.156 15.5443 13.3081 15 13.3081C14.2788 13.3097 13.5862 13.0434 13.0733 12.5672C12.5604 12.091 12.2688 11.4436 12.2622 10.7663H12.2559Z" fill="#484848" fill-opacity="0.9"/>
</svg>
