<svg width="20" height="23" viewBox="0 0 20 23" fill="none" xmlns="http://www.w3.org/2000/svg">
<path d="M18.0714 23H16.4285V20.5357C16.4272 19.4468 15.9941 18.4029 15.2241 17.633C14.4542 16.863 13.4103 16.4299 12.3214 16.4286H7.39282C6.30394 16.4299 5.26003 16.863 4.49007 17.633C3.72012 18.4029 3.28698 19.4468 3.28568 20.5357V23H1.64282V20.5357C1.64456 19.0113 2.25092 17.5497 3.32888 16.4718C4.40684 15.3938 5.86836 14.7875 7.39282 14.7857H12.3214C13.8459 14.7875 15.3074 15.3938 16.3853 16.4718C17.4633 17.5497 18.0697 19.0113 18.0714 20.5357V23Z" fill="#F2F2F2"/>
<path d="M0.821429 3.28571C0.603572 3.28571 0.394639 3.37226 0.240591 3.5263C0.0865433 3.68035 0 3.88929 0 4.10714V11.5H1.64286V4.10714C1.64286 3.88929 1.55631 3.68035 1.40227 3.5263C1.24822 3.37226 1.03929 3.28571 0.821429 3.28571Z" fill="#F2F2F2"/>
<path d="M0 0V1.64286H4.10714V7.39286C4.10714 8.91785 4.71294 10.3804 5.79128 11.4587C6.86961 12.5371 8.33215 13.1429 9.85714 13.1429C11.3821 13.1429 12.8447 12.5371 13.923 11.4587C15.0013 10.3804 15.6071 8.91785 15.6071 7.39286V1.64286H19.7143V0H0ZM5.75 1.64286H13.9643V4.10714H5.75V1.64286ZM9.85714 11.5C8.76786 11.5 7.72319 11.0673 6.95295 10.297C6.18272 9.52681 5.75 8.48214 5.75 7.39286V5.75H13.9643V7.39286C13.9643 8.48214 13.5316 9.52681 12.7613 10.297C11.9911 11.0673 10.9464 11.5 9.85714 11.5Z" fill="#F2F2F2"/>
</svg>
