<svg width="31" height="29" viewBox="0 0 31 29" fill="none" xmlns="http://www.w3.org/2000/svg">
<path fill-rule="evenodd" clip-rule="evenodd" d="M5 6.5C5 6.10217 5.15804 5.72064 5.43934 5.43934C5.72064 5.15804 6.10217 5 6.5 5H24.5C24.8978 5 25.2794 5.15804 25.5607 5.43934C25.842 5.72064 26 6.10217 26 6.5C26 6.89782 25.842 7.27935 25.5607 7.56066C25.2794 7.84196 24.8978 8 24.5 8H6.5C6.10217 8 5.72064 7.84196 5.43934 7.56066C5.15804 7.27935 5 6.89782 5 6.5Z" fill="#F2F2F2"/>
<path fill-rule="evenodd" clip-rule="evenodd" d="M5 14.5C5 14.1022 5.15804 13.7206 5.43934 13.4393C5.72064 13.158 6.10217 13 6.5 13H24.5C24.8978 13 25.2794 13.158 25.5607 13.4393C25.842 13.7206 26 14.1022 26 14.5C26 14.8978 25.842 15.2794 25.5607 15.5607C25.2794 15.842 24.8978 16 24.5 16H6.5C6.10217 16 5.72064 15.842 5.43934 15.5607C5.15804 15.2794 5 14.8978 5 14.5Z" fill="#F2F2F2"/>
<path fill-rule="evenodd" clip-rule="evenodd" d="M14 22.5C14 22.1022 14.158 21.7206 14.4393 21.4393C14.7206 21.158 15.1022 21 15.5 21H24.5C24.8978 21 25.2794 21.158 25.5607 21.4393C25.842 21.7206 26 22.1022 26 22.5C26 22.8978 25.842 23.2794 25.5607 23.5607C25.2794 23.842 24.8978 24 24.5 24H15.5C15.1022 24 14.7206 23.842 14.4393 23.5607C14.158 23.2794 14 22.8978 14 22.5Z" fill="#F2F2F2"/>
</svg>
