<svg width="16" height="16" viewBox="0 0 16 16" fill="none" xmlns="http://www.w3.org/2000/svg">
<path d="M14.9731 6.76907H3.50387L8.51461 1.75832C8.91506 1.35787 8.91506 0.700727 8.51461 0.300279C8.41962 0.205092 8.30679 0.129574 8.18257 0.0780476C8.05836 0.0265217 7.9252 0 7.79072 0C7.65625 0 7.52309 0.0265217 7.39888 0.0780476C7.27466 0.129574 7.16183 0.205092 7.06684 0.300279L0.300279 7.06684C0.205092 7.16183 0.129574 7.27466 0.0780481 7.39887C0.0265222 7.52309 0 7.65625 0 7.79072C0 7.9252 0.0265222 8.05836 0.0780481 8.18257C0.129574 8.30679 0.205092 8.41962 0.300279 8.51461L7.06684 15.2812C7.1619 15.3762 7.27475 15.4516 7.39896 15.5031C7.52316 15.5545 7.65629 15.581 7.79072 15.581C7.92516 15.581 8.05828 15.5545 8.18249 15.5031C8.30669 15.4516 8.41955 15.3762 8.51461 15.2812C8.60967 15.1861 8.68508 15.0732 8.73653 14.949C8.78798 14.8248 8.81446 14.6917 8.81446 14.5573C8.81446 14.4228 8.78798 14.2897 8.73653 14.1655C8.68508 14.0413 8.60967 13.9285 8.51461 13.8334L3.50387 8.82265H14.9731C15.5379 8.82265 15.9999 8.36059 15.9999 7.79586C15.9999 7.23112 15.5379 6.76907 14.9731 6.76907Z" fill="white"/>
</svg>
