<svg width="15" height="19" viewBox="0 0 15 19" fill="none" xmlns="http://www.w3.org/2000/svg">
<path d="M15 13.3594V0.890625C15 0.39707 14.6417 0 14.1964 0H3.21429C1.43973 0 0 1.5957 0 3.5625V15.4375C0 17.4043 1.43973 19 3.21429 19H14.1964C14.6417 19 15 18.6029 15 18.1094V17.5156C15 17.2373 14.8828 16.985 14.702 16.8217C14.5614 16.2502 14.5614 14.6211 14.702 14.0496C14.8828 13.89 15 13.6377 15 13.3594ZM4.28571 4.97266C4.28571 4.8502 4.37612 4.75 4.48661 4.75H11.5848C11.6953 4.75 11.7857 4.8502 11.7857 4.97266V5.71484C11.7857 5.8373 11.6953 5.9375 11.5848 5.9375H4.48661C4.37612 5.9375 4.28571 5.8373 4.28571 5.71484V4.97266ZM4.28571 7.34766C4.28571 7.2252 4.37612 7.125 4.48661 7.125H11.5848C11.6953 7.125 11.7857 7.2252 11.7857 7.34766V8.08984C11.7857 8.21231 11.6953 8.3125 11.5848 8.3125H4.48661C4.37612 8.3125 4.28571 8.21231 4.28571 8.08984V7.34766ZM12.7701 16.625H3.21429C2.62165 16.625 2.14286 16.0943 2.14286 15.4375C2.14286 14.7844 2.625 14.25 3.21429 14.25H12.7701C12.7065 14.8846 12.7065 15.9904 12.7701 16.625Z" fill="#484848" fill-opacity="0.9"/>
</svg>
