<svg width="31" height="30" viewBox="0 0 31 30" fill="none" xmlns="http://www.w3.org/2000/svg">
<path d="M0 15.0901C0.000850058 18.6841 1.28357 22.16 3.61762 24.8929C5.95166 27.6259 9.18396 29.4368 12.7335 30V19.4519H8.90458V15.0901H12.7381V11.7698C12.6534 10.9926 12.7409 10.2064 12.9944 9.4669C13.2478 8.7274 13.661 8.05277 14.2045 7.49094C14.7481 6.9291 15.4086 6.49384 16.1394 6.21606C16.8701 5.93829 17.653 5.82481 18.4325 5.88369C19.5644 5.9018 20.6964 6.00292 21.8132 6.18554V9.89679H19.9055C19.5813 9.85432 19.2516 9.88526 18.941 9.98731C18.6303 10.0894 18.3465 10.2599 18.1107 10.4864C17.8748 10.7129 17.6928 10.9895 17.5782 11.2957C17.4636 11.602 17.4192 11.9301 17.4484 12.2557V15.0901H21.6306L20.962 19.4534H17.4484V30C20.2973 29.5498 22.9576 28.2926 25.1142 26.3775C27.2708 24.4623 28.8334 21.9692 29.6172 19.1935C30.4009 16.4178 30.3728 13.4756 29.5363 10.7153C28.6998 7.95503 27.0899 5.49224 24.8972 3.61852C22.7044 1.74481 20.0207 0.538634 17.1637 0.142809C14.3068 -0.253015 11.3962 0.178086 8.77667 1.38507C6.15712 2.59206 3.93826 4.52438 2.38281 6.95326C0.827362 9.38215 0.000457861 12.2059 0 15.0901Z" fill="#F2F2F2"/>
</svg>
