<svg width="21" height="25" viewBox="0 0 21 25" fill="none" xmlns="http://www.w3.org/2000/svg">
<path d="M10.5 10.5C9.24022 10.5 8.03204 9.99956 7.14124 9.10876C6.25044 8.21796 5.75 7.00978 5.75 5.75C5.75 4.49022 6.25044 3.28204 7.14124 2.39124C8.03204 1.50045 9.24022 1 10.5 1C11.7598 1 12.968 1.50045 13.8588 2.39124C14.7496 3.28204 15.25 4.49022 15.25 5.75C15.25 7.00978 14.7496 8.21796 13.8588 9.10876C12.968 9.99956 11.7598 10.5 10.5 10.5Z" stroke="#F2F2F2" stroke-width="2" stroke-linecap="round"/>
<path d="M1 23.1667V21.5833C1 19.9036 1.66726 18.2927 2.85499 17.105C4.04272 15.9173 5.65363 15.25 7.33333 15.25H13.6667C15.3464 15.25 16.9573 15.9173 18.145 17.105C19.3327 18.2927 20 19.9036 20 21.5833V23.1667" stroke="#F2F2F2" stroke-width="2" stroke-linecap="round"/>
</svg>
