<svg width="22" height="21" viewBox="0 0 22 21" fill="none" xmlns="http://www.w3.org/2000/svg">
<path d="M15.3998 15.3998H14V14H15.3998V15.3998Z" fill="#F2F2F2"/>
<path d="M11.2 15.3998H12.5997V14H11.2V15.3998Z" fill="#F2F2F2"/>
<path d="M18.1998 15.3998H16.8V14H18.1998V15.3998Z" fill="#F2F2F2"/>
<path fill-rule="evenodd" clip-rule="evenodd" d="M4.2 8.4V4.9C4.2 4.25652 4.32674 3.61935 4.57299 3.02485C4.81924 2.43036 5.18017 1.89018 5.63518 1.43518C6.09018 0.98017 6.63036 0.619238 7.22485 0.37299C7.81935 0.126742 8.45652 0 9.1 0C9.74348 0 10.3807 0.126742 10.9752 0.37299C11.5696 0.619238 12.1098 0.98017 12.5648 1.43518C13.0198 1.89018 13.3808 2.43036 13.627 3.02485C13.8733 3.61935 14 4.25652 14 4.9V8.4H16.1C16.657 8.4 17.1911 8.62125 17.5849 9.01508C17.9788 9.4089 18.2 9.94305 18.2 10.5V11.27C18.9912 11.4307 19.7025 11.8599 20.2135 12.485C20.7244 13.1101 21.0035 13.8927 21.0035 14.7C21.0035 15.5073 20.7244 16.2899 20.2135 16.915C19.7025 17.5401 18.9912 17.9693 18.2 18.13V18.9C18.2 19.457 17.9788 19.9911 17.5849 20.3849C17.1911 20.7788 16.657 21 16.1 21H2.1C1.54305 21 1.0089 20.7788 0.615076 20.3849C0.221249 19.9911 0 19.457 0 18.9L0 10.5C0 9.94305 0.221249 9.4089 0.615076 9.01508C1.0089 8.62125 1.54305 8.4 2.1 8.4H4.2ZM5.6 4.9C5.6 3.97174 5.96875 3.0815 6.62513 2.42513C7.2815 1.76875 8.17174 1.4 9.1 1.4C10.0283 1.4 10.9185 1.76875 11.5749 2.42513C12.2313 3.0815 12.6 3.97174 12.6 4.9V8.4H5.6V4.9ZM11.9 12.6C11.343 12.6 10.8089 12.8212 10.4151 13.2151C10.0212 13.6089 9.8 14.143 9.8 14.7C9.8 15.257 10.0212 15.7911 10.4151 16.1849C10.8089 16.5788 11.343 16.8 11.9 16.8H17.5C18.057 16.8 18.5911 16.5788 18.9849 16.1849C19.3788 15.7911 19.6 15.257 19.6 14.7C19.6 14.143 19.3788 13.6089 18.9849 13.2151C18.5911 12.8212 18.057 12.6 17.5 12.6H11.9Z" fill="#F2F2F2"/>
</svg>
